<svg width="20" height="20" viewBox="0 0 20 20" fill="none" xmlns="http://www.w3.org/2000/svg">
<path d="M7.50002 14.1667V12.5M10 14.1667V10.8333M12.5 14.1667V9.16667M14.1667 17.5H5.83335C5.39133 17.5 4.9674 17.3244 4.65484 17.0118C4.34228 16.6993 4.16669 16.2754 4.16669 15.8333V4.16667C4.16669 3.72464 4.34228 3.30072 4.65484 2.98816C4.9674 2.67559 5.39133 2.5 5.83335 2.5H10.4884C10.7093 2.50005 10.9213 2.58788 11.0775 2.74417L15.5892 7.25583C15.7455 7.41208 15.8333 7.624 15.8334 7.845V15.8333C15.8334 16.2754 15.6578 16.6993 15.3452 17.0118C15.0326 17.3244 14.6087 17.5 14.1667 17.5Z" stroke="#2B2D42" stroke-width="1.66667" stroke-linecap="round" stroke-linejoin="round"/>
</svg>
